# xmcd
#
# Track frame offsets: 
#        150
#        17520
#        32368
#        66252
#        89760
#        107519
#        130953
#        149611
#        166625
#        186706
#        202933
#
# Disc length: 2971 seconds
#
# Revision: 0
# Processed by: cddbd v1.5.2PL0 Copyright (c) Steve Scherf et al.
# Submitted via: ExactAudioCopy v0.99pb4
#
DISCID=960b990b
DTITLE=Shri - Miz Blues Shooz
DYEAR=1996
DGENRE=Blues
TTITLE0=The Score
TTITLE1=Don't Need You
TTITLE2=Ball and Chain
TTITLE3=Don't Make Promises
TTITLE4=Blues School
TTITLE5=Goin' to Brownsville
TTITLE6=Mission
TTITLE7=All Along
TTITLE8=All Along the Highway
TTITLE9=No Fantasy
TTITLE10=Look Out
EXTD=
EXTT0=
EXTT1=
EXTT2=
EXTT3=
EXTT4=
EXTT5=
EXTT6=
EXTT7=
EXTT8=
EXTT9=
EXTT10=
PLAYORDER=
